<?xml version="1.0" encoding="utf-8"?>
<!DOCTYPE svg PUBLIC "-//W3C//DTD SVG 1.1//EN" "http://www.w3.org/Graphics/SVG/1.1/DTD/svg11.dtd">
<svg style="width:308px;height:308px;" version="1.1" id="图形" xmlns="http://www.w3.org/2000/svg" xmlns:xlink="http://www.w3.org/1999/xlink" x="0px" y="0px" width="1024px" height="1024px" viewBox="0 0 1024 1024" enable-background="new 0 0 1024 1024" xml:space="preserve">
  <path class="svgpath" data-index="path_0" fill="#56abe4" d="M881.791996 0l-739.584 0c-78.535111 0-142.208 63.672889-142.208 142.222222l0 739.555556c0 78.549333 63.672889 142.222222 142.208 142.222222l739.584 0c78.535111 0 142.208-63.672889 142.208-142.222222l0-739.555556C1023.999996 63.672889 960.327107 0 881.791996 0zM682.666663 896l-341.347556 0 0-56.888889 341.347556 0L682.666663 896zM817.934218 441.998222l-106.823111-1.095111c-15.971556 0-28.444444 12.359111-28.444444 28.444444l0 284.444444c0 16.085333-12.472889 14.222222-28.444444 14.222222l-298.680889 0c-15.943111 0-14.236444-12.359111-14.236444-28.444444l0-270.222222c0-16.071111-12.472889-28.444444-28.416-28.444444l-106.865778 1.095111c-17.564444 0-26.382222-21.390222-13.937778-33.891556l295.722667-297.898667c13.340444-13.425778 34.958222-13.425778 48.298667 0l295.722667 297.898667C844.287996 420.608 835.470218 441.998222 817.934218 441.998222z" />

</svg>
